<svg xmlns="http://www.w3.org/2000/svg" xmlns:xlink="http://www.w3.org/1999/xlink" width="500" zoomAndPan="magnify" viewBox="0 0 375 374.999991" height="500" preserveAspectRatio="xMidYMid meet" version="1.0"><defs><clipPath id="12bc676692"><path d="M 0 0 L 369.75 0 L 369.75 365 L 0 365 Z M 0 0 " clip-rule="nonzero"/></clipPath></defs><rect x="-37.5" width="450" fill="#ffffff" y="-37.499999" height="449.999989" fill-opacity="1"/><rect x="-37.5" width="450" fill="#ffffff" y="-37.499999" height="449.999989" fill-opacity="1"/><rect x="-37.5" width="450" fill="#141414" y="-37.499999" height="449.999989" fill-opacity="1"/><g clip-path="url(#12bc676692)"><path stroke-linecap="round" transform="matrix(1.554832, 0, 0, 1.53351, -1154.630776, -1236.139479)" fill="none" stroke-linejoin="round" d="M 972.940727 925.222972 C 972.940727 927.044263 972.895505 928.865555 972.805061 930.684299 C 972.71713 932.505591 972.581464 934.321788 972.403089 936.135437 C 972.224713 937.94654 972.001116 939.755095 971.732297 941.558556 C 971.46599 943.359469 971.154461 945.155288 970.797711 946.940918 C 970.44096 948.729095 970.0415 950.504536 969.59933 952.272335 C 969.15716 954.040134 968.669768 955.795196 968.139667 957.537523 C 967.609565 959.282396 967.039267 961.011987 966.423746 962.726293 C 965.808226 964.443147 965.152508 966.14217 964.45408 967.825909 C 963.755653 969.507101 963.017028 971.17301 962.238206 972.821088 C 961.456872 974.466618 960.637853 976.094318 959.778636 977.70164 C 958.916908 979.306414 958.017494 980.893357 957.080395 982.454828 C 956.143297 984.018846 955.168513 985.557392 954.153532 987.070465 C 953.141064 988.586085 952.09091 990.076233 951.003072 991.53836 C 949.917746 993.003035 948.794735 994.437143 947.636551 995.845778 C 946.48088 997.254414 945.290036 998.632482 944.06402 999.98253 C 942.838003 1001.332578 941.581839 1002.652059 940.290502 1003.940973 C 939.001677 1005.229887 937.680192 1006.485687 936.328559 1007.708372 C 934.976927 1008.931057 933.595146 1010.120628 932.185729 1011.277084 C 930.776313 1012.433541 929.336748 1013.554336 927.872061 1014.639469 C 926.407373 1015.724602 924.91505 1016.774073 923.400115 1017.785336 C 921.882669 1018.796598 920.342611 1019.772199 918.77743 1020.709591 C 917.21225 1021.644436 915.624458 1022.543619 914.016567 1023.402046 C 912.408677 1024.260473 910.778176 1025.080691 909.130088 1025.857605 C 907.479488 1026.637067 905.813814 1027.375773 904.128041 1028.073722 C 902.442269 1028.769125 900.741422 1029.426318 899.022989 1030.040208 C 897.304556 1030.654098 895.573562 1031.224684 893.827493 1031.754514 C 892.081425 1032.281797 890.325307 1032.768324 888.554115 1033.211547 C 886.785436 1033.652224 885.006707 1034.052144 883.215416 1034.40876 C 881.426638 1034.762829 879.630323 1035.073595 877.826471 1035.341058 C 876.022619 1035.60852 874.21123 1035.832679 872.394816 1036.010987 C 870.580915 1036.189295 868.761989 1036.3243 866.94055 1036.413454 C 865.1166 1036.502608 863.295161 1036.545912 861.471211 1036.545912 C 859.644748 1036.545912 857.823309 1036.502608 855.999358 1036.413454 C 854.17792 1036.3243 852.358994 1036.189295 850.545093 1036.010987 C 848.728679 1035.832679 846.91729 1035.60852 845.113438 1035.341058 C 843.309586 1035.073595 841.513271 1034.762829 839.72198 1034.40876 C 837.933202 1034.052144 836.154473 1033.652224 834.385794 1033.211547 C 832.614602 1032.768324 830.858484 1032.281797 829.112416 1031.754514 C 827.366347 1031.224684 825.635353 1030.654098 823.91692 1030.040208 C 822.198487 1029.426318 820.49764 1028.769125 818.811868 1028.073722 C 817.126095 1027.375773 815.460421 1026.637067 813.809821 1025.857605 C 812.161733 1025.080691 810.531232 1024.260473 808.923341 1023.402046 C 807.315451 1022.543619 805.727659 1021.644436 804.162478 1020.709591 C 802.597297 1019.772199 801.05724 1018.796598 799.539793 1017.785336 C 798.024859 1016.774073 796.532536 1015.724602 795.067848 1014.639469 C 793.60316 1013.554336 792.163596 1012.433541 790.75418 1011.277084 C 789.344763 1010.120628 787.962982 1008.931057 786.611349 1007.708372 C 785.259716 1006.485687 783.938231 1005.229887 782.649407 1003.940973 C 781.35807 1002.652059 780.101905 1001.332578 778.875889 999.98253 C 777.649873 998.632482 776.459029 997.254414 775.303357 995.845778 C 774.145174 994.437143 773.022163 993.003035 771.936837 991.53836 C 770.848998 990.076233 769.798845 988.586085 768.786377 987.070465 C 767.771396 985.557392 766.796612 984.018846 765.859513 982.454828 C 764.919902 980.893357 764.023001 979.306414 763.161272 977.70164 C 762.302056 976.094318 761.483037 974.466618 760.701702 972.821088 C 759.922881 971.17301 759.184256 969.507101 758.485828 967.825909 C 757.787401 966.14217 757.131683 964.443147 756.516163 962.726293 C 755.900642 961.011987 755.330343 959.282396 754.800242 957.537523 C 754.270141 955.795196 753.782749 954.040134 753.340579 952.272335 C 752.898409 950.504536 752.496437 948.729095 752.142198 946.940918 C 751.785448 945.155288 751.473919 943.359469 751.207612 941.558556 C 750.938793 939.755095 750.715195 937.94654 750.53682 936.135437 C 750.358445 934.321788 750.222779 932.505591 750.134848 930.684299 C 750.044404 928.865555 749.999182 927.044263 749.999182 925.222972 C 749.999182 923.40168 750.044404 921.580389 750.134848 919.761645 C 750.222779 917.940353 750.358445 916.124156 750.53682 914.310507 C 750.715195 912.499404 750.938793 910.690849 751.207612 908.887388 C 751.473919 907.086475 751.785448 905.290656 752.142198 903.505026 C 752.496437 901.716849 752.898409 899.941408 753.340579 898.173609 C 753.782749 896.40581 754.270141 894.650748 754.800242 892.908421 C 755.330343 891.163547 755.900642 889.433957 756.516163 887.719651 C 757.131683 886.002797 757.787401 884.303774 758.485828 882.620035 C 759.184256 880.938842 759.922881 879.272934 760.701702 877.624856 C 761.483037 875.979326 762.302056 874.351626 763.161272 872.744304 C 764.023001 871.13953 764.919902 869.552587 765.859513 867.991116 C 766.796612 866.427098 767.771396 864.888552 768.786377 863.375479 C 769.798845 861.859859 770.848998 860.369711 771.936837 858.907584 C 773.022163 857.442909 774.145174 856.008801 775.303357 854.600166 C 776.459029 853.19153 777.649873 851.813462 778.875889 850.463414 C 780.101905 849.113366 781.35807 847.793885 782.649407 846.504971 C 783.938231 845.216057 785.259716 843.960257 786.611349 842.737572 C 787.962982 841.514887 789.344763 840.325316 790.75418 839.168859 C 792.163596 838.012403 793.60316 836.891608 795.067848 835.806475 C 796.532536 834.721342 798.024859 833.671871 799.539793 832.660608 C 801.05724 831.649345 802.597297 830.673745 804.162478 829.736353 C 805.727659 828.801508 807.315451 827.902325 808.923341 827.043898 C 810.531232 826.185471 812.161733 825.365253 813.809821 824.588338 C 815.460421 823.808877 817.126095 823.070171 818.811868 822.372222 C 820.49764 821.676819 822.198487 821.019626 823.91692 820.405736 C 825.635353 819.791846 827.366347 819.22126 829.112416 818.69143 C 830.858484 818.164147 832.614602 817.67762 834.385794 817.234396 C 836.154473 816.79372 837.933202 816.3938 839.72198 816.037184 C 841.513271 815.683115 843.309586 815.372349 845.113438 815.104886 C 846.91729 814.837424 848.728679 814.613265 850.545093 814.434957 C 852.358994 814.256649 854.17792 814.121644 855.999358 814.03249 C 857.823309 813.943335 859.644748 813.900032 861.471211 813.900032 C 863.295161 813.900032 865.1166 813.943335 866.94055 814.03249 C 868.761989 814.121644 870.580915 814.256649 872.394816 814.434957 C 874.21123 814.613265 876.020107 814.837424 877.826471 815.104886 C 879.630323 815.372349 881.426638 815.683115 883.215416 816.037184 C 885.006707 816.3938 886.785436 816.79372 888.554115 817.234396 C 890.325307 817.67762 892.081425 818.164147 893.827493 818.69143 C 895.573562 819.22126 897.304556 819.791846 899.022989 820.405736 C 900.741422 821.019626 902.442269 821.676819 904.128041 822.372222 C 905.813814 823.070171 907.479488 823.808877 909.130088 824.588338 C 910.778176 825.365253 912.408677 826.185471 914.016567 827.043898 C 915.624458 827.902325 917.21225 828.801508 918.77743 829.736353 C 920.342611 830.673745 921.882669 831.649345 923.400115 832.660608 C 924.91505 833.671871 926.407373 834.721342 927.872061 835.806475 C 929.336748 836.891608 930.776313 838.012403 932.185729 839.168859 C 933.595146 840.325316 934.976927 841.514887 936.328559 842.737572 C 937.680192 843.960257 939.001677 845.216057 940.290502 846.504971 C 941.581839 847.793885 942.838003 849.113366 944.06402 850.463414 C 945.290036 851.813462 946.48088 853.19153 947.636551 854.600166 C 948.794735 856.008801 949.917746 857.442909 951.003072 858.907584 C 952.09091 860.369711 953.141064 861.859859 954.153532 863.375479 C 955.168513 864.888552 956.143297 866.427098 957.080395 867.991116 C 958.017494 869.552587 958.916908 871.13953 959.778636 872.744304 C 960.637853 874.351626 961.456872 875.979326 962.238206 877.624856 C 963.017028 879.272934 963.755653 880.938842 964.45408 882.620035 C 965.152508 884.303774 965.808226 886.002797 966.423746 887.719651 C 967.039267 889.433957 967.609565 891.163547 968.139667 892.908421 C 968.669768 894.650748 969.15716 896.40581 969.59933 898.173609 C 970.0415 899.941408 970.44096 901.716849 970.797711 903.505026 C 971.154461 905.290656 971.46599 907.086475 971.732297 908.887388 C 972.001116 910.690849 972.224713 912.499404 972.403089 914.310507 C 972.581464 916.124156 972.71713 917.940353 972.805061 919.761645 C 972.895505 921.580389 972.940727 923.40168 972.940727 925.222972 Z M 972.940727 925.222972 " stroke="#ffffff" stroke-width="14.89" stroke-opacity="1" stroke-miterlimit="1.5"/></g><path fill="#ffffff" d="M 143.347656 79.792969 C 136.3125 78.199219 111.53125 92.824219 111.53125 92.824219 C 84.855469 113.898438 80.804688 140.988281 89.804688 168.097656 C 95.5 185.253906 168.84375 266.945312 193.363281 278.578125 C 217.265625 289.917969 237.203125 287.375 250.875 278.9375 C 250.875 278.9375 272.589844 263.777344 276.371094 253.851562 C 282.03125 239 257.800781 208.472656 230.820312 204.667969 C 221.949219 203.417969 215.664062 213.710938 210.667969 224.578125 C 202.652344 242.019531 148.292969 186.808594 142.085938 166.453125 C 139.730469 158.742188 142.359375 150.558594 145.46875 143.109375 C 149.558594 133.324219 174.355469 133.410156 176.03125 124.023438 C 178.78125 108.640625 158.871094 83.316406 143.347656 79.792969 Z M 143.347656 79.792969 " fill-opacity="1" fill-rule="evenodd"/></svg>