<svg xmlns="http://www.w3.org/2000/svg" xmlns:xlink="http://www.w3.org/1999/xlink" width="500" zoomAndPan="magnify" viewBox="0 0 375 374.999991" height="500" preserveAspectRatio="xMidYMid meet" version="1.0"><defs><clipPath id="9722e66750"><path d="M 11.179688 11.179688 L 363.679688 11.179688 L 363.679688 363.679688 L 11.179688 363.679688 Z M 11.179688 11.179688 " clip-rule="nonzero"/></clipPath></defs><rect x="-37.5" width="450" fill="#ffffff" y="-37.499999" height="449.999989" fill-opacity="1"/><rect x="-37.5" width="450" fill="#ffffff" y="-37.499999" height="449.999989" fill-opacity="1"/><rect x="-37.5" width="450" fill="#141414" y="-37.499999" height="449.999989" fill-opacity="1"/><g clip-path="url(#9722e66750)"><path fill="#ffffff" d="M 334.234375 11.179688 L 40.804688 11.179688 C 24.582031 11.179688 11.535156 24.40625 11.535156 40.453125 L 11.535156 334.410156 C 11.535156 350.632812 24.757812 363.679688 40.804688 363.679688 L 334.054688 363.679688 C 350.277344 363.679688 363.328125 350.457031 363.328125 334.410156 L 363.328125 40.453125 C 363.503906 24.40625 350.457031 11.179688 334.234375 11.179688 Z M 115.75 301.960938 L 63.730469 301.960938 L 63.730469 145.726562 L 115.75 145.726562 Z M 89.652344 126.859375 C 73.253906 126.859375 60.027344 113.632812 60.027344 97.234375 C 60.027344 80.835938 73.253906 67.609375 89.652344 67.609375 C 106.050781 67.609375 119.277344 80.835938 119.277344 97.234375 C 119.277344 113.632812 106.050781 126.859375 89.652344 126.859375 Z M 311.484375 301.960938 L 259.289062 301.960938 L 258.054688 209.207031 C 258.054688 209.207031 259.289062 184.519531 232.308594 184.699219 C 205.328125 184.875 201.625 209.207031 201.625 209.207031 L 201.625 301.960938 L 149.078125 301.960938 L 149.078125 145.726562 L 199.511719 145.726562 L 199.511719 167.238281 C 199.511719 167.238281 201.625 160.1875 213.265625 151.898438 C 224.902344 143.609375 244.125 141.847656 252.410156 142.199219 C 260.699219 142.554688 271.984375 141.140625 290.851562 154.191406 C 311.132812 168.121094 311.660156 204.625 311.660156 204.625 Z M 311.484375 301.960938 " fill-opacity="1" fill-rule="nonzero"/></g></svg>