<svg xmlns="http://www.w3.org/2000/svg" xmlns:xlink="http://www.w3.org/1999/xlink" width="500" zoomAndPan="magnify" viewBox="0 0 375 374.999991" height="500" preserveAspectRatio="xMidYMid meet" version="1.0"><defs><clipPath id="356afbbbe3"><path d="M 0 59 L 373.5 59 L 373.5 316 L 0 316 Z M 0 59 " clip-rule="nonzero"/></clipPath></defs><rect x="-37.5" width="450" fill="#ffffff" y="-37.499999" height="449.999989" fill-opacity="1"/><rect x="-37.5" width="450" fill="#ffffff" y="-37.499999" height="449.999989" fill-opacity="1"/><rect x="-37.5" width="450" fill="#141414" y="-37.499999" height="449.999989" fill-opacity="1"/><g clip-path="url(#356afbbbe3)"><path fill="#f8f6f4" d="M 358.863281 232.921875 L 322.042969 126.789062 C 322.488281 126.34375 322.488281 125.902344 322.488281 125.011719 L 322.488281 114.800781 L 327.808594 114.800781 L 327.808594 109.027344 C 273.25 109.027344 222.238281 97.480469 204.492188 93.039062 L 204.492188 83.269531 L 197.394531 83.269531 L 191.1875 59.734375 L 183.203125 59.734375 L 176.992188 83.269531 L 169.894531 83.269531 L 169.894531 93.039062 C 151.707031 97.480469 101.136719 109.027344 46.578125 109.027344 L 46.578125 114.800781 L 51.898438 114.800781 L 51.898438 125.011719 C 51.898438 125.457031 52.34375 126.34375 52.34375 126.789062 L 15.527344 232.921875 L 0 232.921875 C 0 232.921875 9.757812 265.339844 53.230469 266.671875 C 53.675781 266.671875 54.117188 266.671875 54.5625 266.671875 C 55.003906 266.671875 55.449219 266.671875 55.890625 266.671875 C 99.363281 265.339844 109.121094 232.921875 109.121094 232.921875 L 93.597656 232.921875 L 56.777344 126.789062 C 57.222656 126.34375 57.222656 125.902344 57.222656 125.011719 L 57.222656 114.800781 L 176.105469 114.800781 L 171.667969 127.234375 L 171.667969 233.808594 L 159.691406 246.246094 L 153.480469 246.246094 C 153.480469 270.222656 165.902344 267.558594 165.902344 267.558594 L 165.902344 274.222656 L 159.246094 274.222656 L 125.980469 300.863281 L 125.980469 315.519531 L 247.519531 315.519531 L 247.519531 300.863281 L 214.253906 274.222656 L 207.597656 274.222656 L 207.597656 268.003906 C 207.597656 268.003906 220.019531 270.667969 220.019531 246.6875 L 213.808594 246.6875 L 201.832031 234.253906 L 201.832031 127.675781 L 197.394531 115.242188 L 316.277344 115.242188 L 316.277344 125.457031 C 316.277344 125.902344 316.722656 126.789062 316.722656 127.234375 L 279.902344 233.367188 L 264.378906 233.367188 C 264.378906 233.367188 274.136719 265.785156 317.609375 267.117188 C 318.050781 267.117188 318.496094 267.117188 318.9375 267.117188 C 319.382812 267.117188 319.824219 267.117188 320.269531 267.117188 C 363.742188 265.785156 373.5 233.367188 373.5 233.367188 L 358.863281 233.367188 Z M 90.046875 232.921875 L 19.519531 232.921875 L 55.003906 131.230469 Z M 321.15625 232.921875 L 284.78125 232.921875 L 320.269531 131.230469 L 355.757812 232.921875 Z M 321.15625 232.921875 " fill-opacity="1" fill-rule="nonzero"/></g></svg>